<svg width="700" height="700" viewBox="0 0 700 700" fill="none" xmlns="http://www.w3.org/2000/svg">
<rect width="700" height="700" rx="125" fill="#424242"/>
<path d="M222.927 222.585H211.951V211.61H222.927V222.585ZM222.927 233.561H211.951V222.585H222.927V233.561ZM222.927 244.537H211.951V233.561H222.927V244.537ZM222.927 255.512H211.951V244.537H222.927V255.512ZM222.927 266.488H211.951V255.512H222.927V266.488ZM222.927 277.463H211.951V266.488H222.927V277.463ZM222.927 288.439H211.951V277.463H222.927V288.439ZM222.927 299.415H211.951V288.439H222.927V299.415ZM222.927 310.39H211.951V299.415H222.927V310.39ZM222.927 321.366H211.951V310.39H222.927V321.366ZM222.927 332.341H211.951V321.366H222.927V332.341ZM222.927 343.317H211.951V332.341H222.927V343.317ZM222.927 354.293H211.951V343.317H222.927V354.293ZM222.927 365.268H211.951V354.293H222.927V365.268ZM222.927 376.244H211.951V365.268H222.927V376.244ZM233.902 376.244H222.927V365.268H233.902V376.244ZM233.902 365.268H222.927V354.293H233.902V365.268ZM233.902 354.293H222.927V343.317H233.902V354.293ZM233.902 343.317H222.927V332.341H233.902V343.317ZM233.902 332.341H222.927V321.366H233.902V332.341ZM233.902 321.366H222.927V310.39H233.902V321.366ZM233.902 310.39H222.927V299.415H233.902V310.39ZM244.878 299.415H233.902V288.439H244.878V299.415ZM244.878 288.439H233.902V277.463H244.878V288.439ZM244.878 277.463H233.902V266.488H244.878V277.463ZM244.878 266.488H233.902V255.512H244.878V266.488ZM244.878 255.512H233.902V244.537H244.878V255.512ZM244.878 244.537H233.902V233.561H244.878V244.537ZM244.878 233.561H233.902V222.585H244.878V233.561ZM244.878 222.585H233.902V211.61H244.878V222.585ZM255.854 222.585H244.878V211.61H255.854V222.585ZM266.829 222.585H255.854V211.61H266.829V222.585ZM266.829 233.561H255.854V222.585H266.829V233.561ZM266.829 244.537H255.854V233.561H266.829V244.537ZM266.829 255.512H255.854V244.537H266.829V255.512ZM266.829 266.488H255.854V255.512H266.829V266.488ZM266.829 277.463H255.854V266.488H266.829V277.463ZM266.829 288.439H255.854V277.463H266.829V288.439ZM266.829 299.415H255.854V288.439H266.829V299.415ZM255.854 299.415H244.878V288.439H255.854V299.415ZM255.854 310.39H244.878V299.415H255.854V310.39ZM255.854 288.439H244.878V277.463H255.854V288.439ZM255.854 277.463H244.878V266.488H255.854V277.463ZM255.854 266.488H244.878V255.512H255.854V266.488ZM255.854 255.512H244.878V244.537H255.854V255.512ZM255.854 244.537H244.878V233.561H255.854V244.537ZM255.854 233.561H244.878V222.585H255.854V233.561ZM233.902 222.585H222.927V211.61H233.902V222.585ZM233.902 233.561H222.927V222.585H233.902V233.561ZM233.902 244.537H222.927V233.561H233.902V244.537ZM233.902 255.512H222.927V244.537H233.902V255.512ZM233.902 266.488H222.927V255.512H233.902V266.488ZM233.902 277.463H222.927V266.488H233.902V277.463ZM233.902 288.439H222.927V277.463H233.902V288.439ZM233.902 299.415H222.927V288.439H233.902V299.415ZM222.927 409.171H211.951V398.195H222.927V409.171ZM222.927 398.195H211.951V387.22H222.927V398.195ZM222.927 387.22H211.951V376.244H222.927V387.22ZM255.854 431.122H244.878V420.146H255.854V431.122ZM255.854 409.171H244.878V398.195H255.854V409.171ZM255.854 398.195H244.878V387.22H255.854V398.195ZM255.854 387.22H244.878V376.244H255.854V387.22ZM255.854 376.244H244.878V365.268H255.854V376.244ZM255.854 365.268H244.878V354.293H255.854V365.268ZM255.854 354.293H244.878V343.317H255.854V354.293ZM255.854 343.317H244.878V332.341H255.854V343.317ZM266.829 332.341H255.854V321.366H266.829V332.341ZM266.829 321.366H255.854V310.39H266.829V321.366ZM266.829 310.39H255.854V299.415H266.829V310.39ZM266.829 343.317H255.854V332.341H266.829V343.317ZM266.829 354.293H255.854V343.317H266.829V354.293ZM266.829 365.268H255.854V354.293H266.829V365.268ZM266.829 376.244H255.854V365.268H266.829V376.244ZM266.829 387.22H255.854V376.244H266.829V387.22ZM266.829 398.195H255.854V387.22H266.829V398.195ZM266.829 409.171H255.854V398.195H266.829V409.171ZM266.829 420.146H255.854V409.171H266.829V420.146ZM266.829 431.122H255.854V420.146H266.829V431.122ZM266.829 442.098H255.854V431.122H266.829V442.098ZM255.854 420.146H244.878V409.171H255.854V420.146ZM266.829 453.073H255.854V442.098H266.829V453.073ZM266.829 464.049H255.854V453.073H266.829V464.049ZM244.878 431.122H233.902V420.146H244.878V431.122ZM244.878 420.146H233.902V409.171H244.878V420.146ZM244.878 409.171H233.902V398.195H244.878V409.171ZM233.902 398.195H222.927V387.22H233.902V398.195ZM233.902 387.22H222.927V376.244H233.902V387.22ZM233.902 409.171H222.927V398.195H233.902V409.171ZM233.902 420.146H222.927V409.171H233.902V420.146ZM244.878 398.195H233.902V387.22H244.878V398.195ZM244.878 387.22H233.902V376.244H244.878V387.22ZM244.878 376.244H233.902V365.268H244.878V376.244ZM244.878 365.268H233.902V354.293H244.878V365.268ZM244.878 354.293H233.902V343.317H244.878V354.293ZM244.878 343.317H233.902V332.341H244.878V343.317ZM244.878 332.341H233.902V321.366H244.878V332.341ZM244.878 321.366H233.902V310.39H244.878V321.366ZM244.878 310.39H233.902V299.415H244.878V310.39ZM255.854 321.366H244.878V310.39H255.854V321.366ZM255.854 332.341H244.878V321.366H255.854V332.341ZM332.683 464.049H321.707V453.073H332.683V464.049ZM332.683 453.073H321.707V442.098H332.683V453.073ZM332.683 442.098H321.707V431.122H332.683V442.098ZM332.683 431.122H321.707V420.146H332.683V431.122ZM343.659 442.098H332.683V431.122H343.659V442.098ZM343.659 453.073H332.683V442.098H343.659V453.073ZM288.78 486H277.805V475.024H288.78V486ZM299.756 486H288.78V475.024H299.756V486ZM310.732 486H299.756V475.024H310.732V486ZM321.707 475.024H310.732V464.049H321.707V475.024ZM310.732 475.024H299.756V464.049H310.732V475.024ZM299.756 475.024H288.78V464.049H299.756V475.024ZM288.78 475.024H277.805V464.049H288.78V475.024ZM277.805 475.024H266.829V464.049H277.805V475.024ZM277.805 464.049H266.829V453.073H277.805V464.049ZM277.805 453.073H266.829V442.098H277.805V453.073ZM288.78 464.049H277.805V453.073H288.78V464.049ZM299.756 464.049H288.78V453.073H299.756V464.049ZM310.732 464.049H299.756V453.073H310.732V464.049ZM321.707 464.049H310.732V453.073H321.707V464.049ZM321.707 453.073H310.732V442.098H321.707V453.073ZM310.732 453.073H299.756V442.098H310.732V453.073ZM299.756 453.073H288.78V442.098H299.756V453.073ZM288.78 453.073H277.805V442.098H288.78V453.073ZM277.805 442.098H266.829V431.122H277.805V442.098ZM288.78 442.098H277.805V431.122H288.78V442.098ZM321.707 442.098H310.732V431.122H321.707V442.098ZM310.732 442.098H299.756V431.122H310.732V442.098ZM321.707 431.122H310.732V420.146H321.707V431.122ZM277.805 431.122H266.829V420.146H277.805V431.122ZM255.854 453.073H244.878V442.098H255.854V453.073ZM255.854 442.098H244.878V431.122H255.854V442.098ZM244.878 442.098H233.902V431.122H244.878V442.098ZM233.902 431.122H222.927V420.146H233.902V431.122ZM222.927 420.146H211.951V409.171H222.927V420.146ZM277.805 420.146H266.829V409.171H277.805V420.146ZM288.78 431.122H277.805V420.146H288.78V431.122ZM299.756 442.098H288.78V431.122H299.756V442.098ZM310.732 431.122H299.756V420.146H310.732V431.122ZM321.707 420.146H310.732V409.171H321.707V420.146ZM299.756 431.122H288.78V420.146H299.756V431.122ZM288.78 420.146H277.805V409.171H288.78V420.146ZM277.805 409.171H266.829V398.195H277.805V409.171ZM310.732 420.146H299.756V409.171H310.732V420.146ZM321.707 409.171H310.732V398.195H321.707V409.171ZM332.683 222.585H321.707V211.61H332.683V222.585ZM332.683 233.561H321.707V222.585H332.683V233.561ZM332.683 244.537H321.707V233.561H332.683V244.537ZM332.683 255.512H321.707V244.537H332.683V255.512ZM332.683 266.488H321.707V255.512H332.683V266.488ZM332.683 288.439H321.707V277.463H332.683V288.439ZM332.683 299.415H321.707V288.439H332.683V299.415ZM332.683 310.39H321.707V299.415H332.683V310.39ZM332.683 321.366H321.707V310.39H332.683V321.366ZM332.683 332.341H321.707V321.366H332.683V332.341ZM332.683 343.317H321.707V332.341H332.683V343.317ZM332.683 354.293H321.707V343.317H332.683V354.293ZM332.683 365.268H321.707V354.293H332.683V365.268ZM332.683 376.244H321.707V365.268H332.683V376.244ZM343.659 376.244H332.683V365.268H343.659V376.244ZM343.659 365.268H332.683V354.293H343.659V365.268ZM343.659 354.293H332.683V343.317H343.659V354.293ZM343.659 332.341H332.683V321.366H343.659V332.341ZM343.659 321.366H332.683V310.39H343.659V321.366ZM343.659 310.39H332.683V299.415H343.659V310.39ZM354.634 288.439H343.659V277.463H354.634V288.439ZM354.634 277.463H343.659V266.488H354.634V277.463ZM354.634 266.488H343.659V255.512H354.634V266.488ZM354.634 255.512H343.659V244.537H354.634V255.512ZM354.634 244.537H343.659V233.561H354.634V244.537ZM354.634 233.561H343.659V222.585H354.634V233.561ZM354.634 222.585H343.659V211.61H354.634V222.585ZM376.585 222.585H365.61V211.61H376.585V222.585ZM376.585 233.561H365.61V222.585H376.585V233.561ZM376.585 244.537H365.61V233.561H376.585V244.537ZM376.585 266.488H365.61V255.512H376.585V266.488ZM376.585 277.463H365.61V266.488H376.585V277.463ZM376.585 299.415H365.61V288.439H376.585V299.415ZM365.61 299.415H354.634V288.439H365.61V299.415ZM365.61 310.39H354.634V299.415H365.61V310.39ZM365.61 288.439H354.634V277.463H365.61V288.439ZM365.61 277.463H354.634V266.488H365.61V277.463ZM365.61 266.488H354.634V255.512H365.61V266.488ZM365.61 255.512H354.634V244.537H365.61V255.512ZM365.61 244.537H354.634V233.561H365.61V244.537ZM365.61 233.561H354.634V222.585H365.61V233.561ZM343.659 222.585H332.683V211.61H343.659V222.585ZM343.659 244.537H332.683V233.561H343.659V244.537ZM343.659 255.512H332.683V244.537H343.659V255.512ZM343.659 266.488H332.683V255.512H343.659V266.488ZM343.659 277.463H332.683V266.488H343.659V277.463ZM343.659 288.439H332.683V277.463H343.659V288.439ZM332.683 409.171H321.707V398.195H332.683V409.171ZM332.683 387.22H321.707V376.244H332.683V387.22ZM365.61 431.122H354.634V420.146H365.61V431.122ZM365.61 409.171H354.634V398.195H365.61V409.171ZM365.61 398.195H354.634V387.22H365.61V398.195ZM365.61 387.22H354.634V376.244H365.61V387.22ZM365.61 376.244H354.634V365.268H365.61V376.244ZM365.61 365.268H354.634V354.293H365.61V365.268ZM365.61 354.293H354.634V343.317H365.61V354.293ZM365.61 343.317H354.634V332.341H365.61V343.317ZM376.585 332.341H365.61V321.366H376.585V332.341ZM376.585 321.366H365.61V310.39H376.585V321.366ZM376.585 310.39H365.61V299.415H376.585V310.39ZM376.585 343.317H365.61V332.341H376.585V343.317ZM376.585 354.293H365.61V343.317H376.585V354.293ZM376.585 365.268H365.61V354.293H376.585V365.268ZM376.585 376.244H365.61V365.268H376.585V376.244ZM376.585 387.22H365.61V376.244H376.585V387.22ZM376.585 398.195H365.61V387.22H376.585V398.195ZM376.585 409.171H365.61V398.195H376.585V409.171ZM376.585 420.146H365.61V409.171H376.585V420.146ZM376.585 431.122H365.61V420.146H376.585V431.122ZM376.585 442.098H365.61V431.122H376.585V442.098ZM365.61 420.146H354.634V409.171H365.61V420.146ZM376.585 453.073H365.61V442.098H376.585V453.073ZM376.585 464.049H365.61V453.073H376.585V464.049ZM354.634 431.122H343.659V420.146H354.634V431.122ZM354.634 420.146H343.659V409.171H354.634V420.146ZM354.634 409.171H343.659V398.195H354.634V409.171ZM343.659 398.195H332.683V387.22H343.659V398.195ZM343.659 387.22H332.683V376.244H343.659V387.22ZM343.659 409.171H332.683V398.195H343.659V409.171ZM343.659 420.146H332.683V409.171H343.659V420.146ZM354.634 398.195H343.659V387.22H354.634V398.195ZM354.634 387.22H343.659V376.244H354.634V387.22ZM354.634 354.293H343.659V343.317H354.634V354.293ZM354.634 343.317H343.659V332.341H354.634V343.317ZM354.634 332.341H343.659V321.366H354.634V332.341ZM354.634 321.366H343.659V310.39H354.634V321.366ZM354.634 310.39H343.659V299.415H354.634V310.39ZM365.61 321.366H354.634V310.39H365.61V321.366ZM365.61 332.341H354.634V321.366H365.61V332.341ZM442.439 222.585H431.463V211.61H442.439V222.585ZM442.439 233.561H431.463V222.585H442.439V233.561ZM442.439 244.537H431.463V233.561H442.439V244.537ZM442.439 255.512H431.463V244.537H442.439V255.512ZM442.439 266.488H431.463V255.512H442.439V266.488ZM442.439 277.463H431.463V266.488H442.439V277.463ZM442.439 288.439H431.463V277.463H442.439V288.439ZM442.439 299.415H431.463V288.439H442.439V299.415ZM442.439 310.39H431.463V299.415H442.439V310.39ZM442.439 321.366H431.463V310.39H442.439V321.366ZM442.439 332.341H431.463V321.366H442.439V332.341ZM442.439 343.317H431.463V332.341H442.439V343.317ZM442.439 354.293H431.463V343.317H442.439V354.293ZM442.439 365.268H431.463V354.293H442.439V365.268ZM442.439 376.244H431.463V365.268H442.439V376.244ZM453.415 376.244H442.439V365.268H453.415V376.244ZM453.415 365.268H442.439V354.293H453.415V365.268ZM453.415 354.293H442.439V343.317H453.415V354.293ZM453.415 343.317H442.439V332.341H453.415V343.317ZM453.415 332.341H442.439V321.366H453.415V332.341ZM453.415 321.366H442.439V310.39H453.415V321.366ZM453.415 310.39H442.439V299.415H453.415V310.39ZM464.39 299.415H453.415V288.439H464.39V299.415ZM464.39 288.439H453.415V277.463H464.39V288.439ZM464.39 277.463H453.415V266.488H464.39V277.463ZM464.39 266.488H453.415V255.512H464.39V266.488ZM464.39 255.512H453.415V244.537H464.39V255.512ZM464.39 244.537H453.415V233.561H464.39V244.537ZM464.39 233.561H453.415V222.585H464.39V233.561ZM464.39 222.585H453.415V211.61H464.39V222.585ZM475.366 222.585H464.39V211.61H475.366V222.585ZM486.341 222.585H475.366V211.61H486.341V222.585ZM486.341 233.561H475.366V222.585H486.341V233.561ZM486.341 244.537H475.366V233.561H486.341V244.537ZM486.341 255.512H475.366V244.537H486.341V255.512ZM486.341 266.488H475.366V255.512H486.341V266.488ZM486.341 277.463H475.366V266.488H486.341V277.463ZM486.341 288.439H475.366V277.463H486.341V288.439ZM486.341 299.415H475.366V288.439H486.341V299.415ZM475.366 299.415H464.39V288.439H475.366V299.415ZM475.366 310.39H464.39V299.415H475.366V310.39ZM475.366 288.439H464.39V277.463H475.366V288.439ZM475.366 277.463H464.39V266.488H475.366V277.463ZM475.366 266.488H464.39V255.512H475.366V266.488ZM475.366 255.512H464.39V244.537H475.366V255.512ZM475.366 244.537H464.39V233.561H475.366V244.537ZM475.366 233.561H464.39V222.585H475.366V233.561ZM453.415 222.585H442.439V211.61H453.415V222.585ZM453.415 233.561H442.439V222.585H453.415V233.561ZM453.415 244.537H442.439V233.561H453.415V244.537ZM453.415 255.512H442.439V244.537H453.415V255.512ZM453.415 266.488H442.439V255.512H453.415V266.488ZM453.415 277.463H442.439V266.488H453.415V277.463ZM453.415 288.439H442.439V277.463H453.415V288.439ZM453.415 299.415H442.439V288.439H453.415V299.415ZM442.439 464.049H431.463V453.073H442.439V464.049ZM442.439 453.073H431.463V442.098H442.439V453.073ZM442.439 442.098H431.463V431.122H442.439V442.098ZM442.439 431.122H431.463V420.146H442.439V431.122ZM442.439 420.146H431.463V409.171H442.439V420.146ZM442.439 409.171H431.463V398.195H442.439V409.171ZM442.439 398.195H431.463V387.22H442.439V398.195ZM442.439 387.22H431.463V376.244H442.439V387.22ZM475.366 431.122H464.39V420.146H475.366V431.122ZM475.366 409.171H464.39V398.195H475.366V409.171ZM475.366 398.195H464.39V387.22H475.366V398.195ZM475.366 387.22H464.39V376.244H475.366V387.22ZM475.366 376.244H464.39V365.268H475.366V376.244ZM475.366 365.268H464.39V354.293H475.366V365.268ZM475.366 354.293H464.39V343.317H475.366V354.293ZM475.366 343.317H464.39V332.341H475.366V343.317ZM486.341 332.341H475.366V321.366H486.341V332.341ZM486.341 321.366H475.366V310.39H486.341V321.366ZM486.341 310.39H475.366V299.415H486.341V310.39ZM486.341 343.317H475.366V332.341H486.341V343.317ZM486.341 354.293H475.366V343.317H486.341V354.293ZM486.341 365.268H475.366V354.293H486.341V365.268ZM486.341 376.244H475.366V365.268H486.341V376.244ZM486.341 387.22H475.366V376.244H486.341V387.22ZM486.341 398.195H475.366V387.22H486.341V398.195ZM486.341 409.171H475.366V398.195H486.341V409.171ZM486.341 420.146H475.366V409.171H486.341V420.146ZM475.366 420.146H464.39V409.171H475.366V420.146ZM464.39 442.098H453.415V431.122H464.39V442.098ZM464.39 431.122H453.415V420.146H464.39V431.122ZM464.39 420.146H453.415V409.171H464.39V420.146ZM464.39 409.171H453.415V398.195H464.39V409.171ZM453.415 398.195H442.439V387.22H453.415V398.195ZM453.415 387.22H442.439V376.244H453.415V387.22ZM453.415 409.171H442.439V398.195H453.415V409.171ZM453.415 420.146H442.439V409.171H453.415V420.146ZM453.415 431.122H442.439V420.146H453.415V431.122ZM453.415 442.098H442.439V431.122H453.415V442.098ZM453.415 453.073H442.439V442.098H453.415V453.073ZM464.39 398.195H453.415V387.22H464.39V398.195ZM464.39 387.22H453.415V376.244H464.39V387.22ZM464.39 376.244H453.415V365.268H464.39V376.244ZM464.39 365.268H453.415V354.293H464.39V365.268ZM464.39 354.293H453.415V343.317H464.39V354.293ZM464.39 343.317H453.415V332.341H464.39V343.317ZM464.39 332.341H453.415V321.366H464.39V332.341ZM464.39 321.366H453.415V310.39H464.39V321.366ZM464.39 310.39H453.415V299.415H464.39V310.39ZM475.366 321.366H464.39V310.39H475.366V321.366ZM475.366 332.341H464.39V321.366H475.366V332.341ZM398.537 486H387.561V475.024H398.537V486ZM409.512 486H398.537V475.024H409.512V486ZM420.488 486H409.512V475.024H420.488V486ZM431.463 475.024H420.488V464.049H431.463V475.024ZM420.488 475.024H409.512V464.049H420.488V475.024ZM409.512 475.024H398.537V464.049H409.512V475.024ZM398.537 475.024H387.561V464.049H398.537V475.024ZM387.561 475.024H376.585V464.049H387.561V475.024ZM387.561 464.049H376.585V453.073H387.561V464.049ZM387.561 453.073H376.585V442.098H387.561V453.073ZM398.537 464.049H387.561V453.073H398.537V464.049ZM409.512 464.049H398.537V453.073H409.512V464.049ZM420.488 464.049H409.512V453.073H420.488V464.049ZM431.463 464.049H420.488V453.073H431.463V464.049ZM431.463 453.073H420.488V442.098H431.463V453.073ZM420.488 453.073H409.512V442.098H420.488V453.073ZM409.512 453.073H398.537V442.098H409.512V453.073ZM398.537 453.073H387.561V442.098H398.537V453.073ZM387.561 442.098H376.585V431.122H387.561V442.098ZM398.537 442.098H387.561V431.122H398.537V442.098ZM431.463 442.098H420.488V431.122H431.463V442.098ZM420.488 442.098H409.512V431.122H420.488V442.098ZM431.463 431.122H420.488V420.146H431.463V431.122ZM387.561 431.122H376.585V420.146H387.561V431.122ZM365.61 453.073H354.634V442.098H365.61V453.073ZM365.61 442.098H354.634V431.122H365.61V442.098ZM354.634 442.098H343.659V431.122H354.634V442.098ZM343.659 431.122H332.683V420.146H343.659V431.122ZM332.683 420.146H321.707V409.171H332.683V420.146ZM387.561 420.146H376.585V409.171H387.561V420.146ZM398.537 431.122H387.561V420.146H398.537V431.122ZM409.512 442.098H398.537V431.122H409.512V442.098ZM420.488 431.122H409.512V420.146H420.488V431.122ZM431.463 420.146H420.488V409.171H431.463V420.146ZM409.512 431.122H398.537V420.146H409.512V431.122ZM398.537 420.146H387.561V409.171H398.537V420.146ZM387.561 409.171H376.585V398.195H387.561V409.171ZM420.488 420.146H409.512V409.171H420.488V420.146ZM431.463 409.171H420.488V398.195H431.463V409.171ZM332.683 387.22V398.195H321.707V387.22H332.683ZM354.634 365.268V376.244H343.659V365.268H354.634ZM354.634 354.293V365.268H343.659V354.293H354.634ZM343.659 332.341V343.317H332.683V332.341H343.659ZM365.61 211.61V222.585H354.634V211.61H365.61ZM343.659 222.585V233.561H332.683V222.585H343.659ZM376.585 244.537V255.512H365.61V244.537H376.585ZM332.683 266.488V277.463H321.707V266.488H332.683ZM376.585 277.463V288.439H365.61V277.463H376.585ZM354.634 288.439V299.415H343.659V288.439H354.634ZM343.659 288.439V299.415H332.683V288.439H343.659Z" fill="#7B8D7B"/>
</svg>
