<svg width="44" height="44" viewBox="0 0 44 44" fill="none" xmlns="http://www.w3.org/2000/svg">
<g clip-path="url(#clip0_60_229)">
<path d="M30.3334 22C30.3334 26.6024 26.6024 30.3334 22 30.3334M30.3334 22C30.3334 17.3976 26.6024 13.6667 22 13.6667M30.3334 22H13.6667M22 30.3334C17.3976 30.3334 13.6667 26.6024 13.6667 22M22 30.3334C24.0844 28.0514 25.269 25.09 25.3334 22C25.269 18.91 24.0844 15.9486 22 13.6667M22 30.3334C19.9156 28.0514 18.7311 25.09 18.6667 22C18.7311 18.91 19.9156 15.9486 22 13.6667M13.6667 22C13.6667 17.3976 17.3976 13.6667 22 13.6667" stroke="#F5F5F5" stroke-width="2" stroke-linecap="round" stroke-linejoin="round"/>
</g>
<defs>
<clipPath id="clip0_60_229">
<rect width="20" height="20" fill="white" transform="translate(12 12)"/>
</clipPath>
</defs>
</svg>
