<svg width="29" height="45" viewBox="0 0 29 45" fill="none" xmlns="http://www.w3.org/2000/svg">
<path d="M13.7102 15.769H7.87687C7.43484 15.769 7.01092 15.9446 6.69836 16.2571C6.3858 16.5697 6.21021 16.9936 6.21021 17.4357V29.1023C6.21021 29.5443 6.3858 29.9683 6.69836 30.2808C7.01092 30.5934 7.43484 30.769 7.87687 30.769H19.5435C19.9856 30.769 20.4095 30.5934 20.722 30.2808C21.0346 29.9683 21.2102 29.5443 21.2102 29.1023V23.269M19.9602 14.519C20.2917 14.1875 20.7414 14.0012 21.2102 14.0012C21.679 14.0012 22.1287 14.1875 22.4602 14.519C22.7917 14.8505 22.978 15.3001 22.978 15.769C22.978 16.2378 22.7917 16.6875 22.4602 17.019L14.5435 24.9357L11.2102 25.769L12.0435 22.4357L19.9602 14.519Z" stroke="#F5F5F5" stroke-width="2" stroke-linecap="round" stroke-linejoin="round"/>
</svg>
