<svg width="36" height="36" viewBox="0 0 36 36" fill="none" xmlns="http://www.w3.org/2000/svg">
<g clip-path="url(#clip0_38_84)">
<path d="M18 20.5C19.3808 20.5 20.5 19.3808 20.5 18C20.5 16.6193 19.3808 15.5 18 15.5C16.6193 15.5 15.5 16.6193 15.5 18C15.5 19.3808 16.6193 20.5 18 20.5Z" stroke="#F5F5F5" stroke-width="2" stroke-linecap="round" stroke-linejoin="round"/>
<path d="M24.1667 20.5C24.0558 20.7514 24.0227 21.0302 24.0717 21.3005C24.1207 21.5709 24.2496 21.8203 24.4417 22.0167L24.4917 22.0667C24.6467 22.2215 24.7696 22.4053 24.8535 22.6076C24.9373 22.81 24.9805 23.0268 24.9805 23.2459C24.9805 23.4649 24.9373 23.6818 24.8535 23.8841C24.7696 24.0864 24.6467 24.2702 24.4917 24.425C24.3369 24.58 24.1531 24.7029 23.9508 24.7868C23.7484 24.8707 23.5316 24.9139 23.3125 24.9139C23.0935 24.9139 22.8766 24.8707 22.6743 24.7868C22.472 24.7029 22.2882 24.58 22.1334 24.425L22.0834 24.375C21.887 24.1829 21.6375 24.0541 21.3672 24.005C21.0969 23.956 20.8181 23.9891 20.5667 24.1C20.3202 24.2057 20.11 24.3811 19.962 24.6047C19.8139 24.8282 19.7344 25.0902 19.7334 25.3584V25.5C19.7334 25.9421 19.5578 26.366 19.2452 26.6786C18.9327 26.9911 18.5087 27.1667 18.0667 27.1667C17.6247 27.1667 17.2008 26.9911 16.8882 26.6786C16.5756 26.366 16.4 25.9421 16.4 25.5V25.425C16.3936 25.1492 16.3043 24.8817 16.1438 24.6573C15.9833 24.4329 15.759 24.2619 15.5 24.1667C15.2487 24.0558 14.9699 24.0227 14.6995 24.0717C14.4292 24.1207 14.1798 24.2496 13.9834 24.4417L13.9334 24.4917C13.7786 24.6467 13.5948 24.7696 13.3924 24.8535C13.1901 24.9373 12.9732 24.9805 12.7542 24.9805C12.5352 24.9805 12.3183 24.9373 12.116 24.8535C11.9136 24.7696 11.7298 24.6467 11.575 24.4917C11.4201 24.3369 11.2971 24.1531 11.2133 23.9508C11.1294 23.7484 11.0862 23.5316 11.0862 23.3125C11.0862 23.0935 11.1294 22.8766 11.2133 22.6743C11.2971 22.472 11.4201 22.2882 11.575 22.1334L11.625 22.0834C11.8172 21.887 11.946 21.6375 11.995 21.3672C12.0441 21.0969 12.011 20.8181 11.9 20.5667C11.7944 20.3202 11.619 20.11 11.3954 19.962C11.1719 19.8139 10.9099 19.7344 10.6417 19.7334H10.5C10.058 19.7334 9.63409 19.5578 9.32153 19.2452C9.00897 18.9327 8.83337 18.5087 8.83337 18.0667C8.83337 17.6247 9.00897 17.2008 9.32153 16.8882C9.63409 16.5756 10.058 16.4 10.5 16.4H10.575C10.8509 16.3936 11.1184 16.3043 11.3428 16.1438C11.5672 15.9833 11.7381 15.759 11.8334 15.5C11.9443 15.2487 11.9774 14.9699 11.9284 14.6995C11.8794 14.4292 11.7505 14.1798 11.5584 13.9834L11.5084 13.9334C11.3534 13.7786 11.2305 13.5948 11.1466 13.3924C11.0627 13.1901 11.0196 12.9732 11.0196 12.7542C11.0196 12.5352 11.0627 12.3183 11.1466 12.116C11.2305 11.9136 11.3534 11.7298 11.5084 11.575C11.6632 11.4201 11.847 11.2971 12.0493 11.2133C12.2516 11.1294 12.4685 11.0862 12.6875 11.0862C12.9066 11.0862 13.1234 11.1294 13.3258 11.2133C13.5281 11.2971 13.7119 11.4201 13.8667 11.575L13.9167 11.625C14.1131 11.8172 14.3626 11.946 14.6329 11.995C14.9032 12.0441 15.182 12.011 15.4334 11.9H15.5C15.7465 11.7944 15.9567 11.619 16.1048 11.3954C16.2528 11.1719 16.3323 10.9099 16.3334 10.6417V10.5C16.3334 10.058 16.509 9.63409 16.8215 9.32153C17.1341 9.00897 17.558 8.83337 18 8.83337C18.4421 8.83337 18.866 9.00897 19.1786 9.32153C19.4911 9.63409 19.6667 10.058 19.6667 10.5V10.575C19.6678 10.8432 19.7472 11.1052 19.8953 11.3288C20.0434 11.5523 20.2536 11.7277 20.5 11.8334C20.7514 11.9443 21.0302 11.9774 21.3005 11.9284C21.5709 11.8794 21.8203 11.7505 22.0167 11.5584L22.0667 11.5084C22.2215 11.3534 22.4053 11.2305 22.6076 11.1466C22.81 11.0627 23.0268 11.0196 23.2459 11.0196C23.4649 11.0196 23.6818 11.0627 23.8841 11.1466C24.0864 11.2305 24.2702 11.3534 24.425 11.5084C24.58 11.6632 24.7029 11.847 24.7868 12.0493C24.8707 12.2516 24.9139 12.4685 24.9139 12.6875C24.9139 12.9066 24.8707 13.1234 24.7868 13.3258C24.7029 13.5281 24.58 13.7119 24.425 13.8667L24.375 13.9167C24.1829 14.1131 24.0541 14.3626 24.005 14.6329C23.956 14.9032 23.9891 15.182 24.1 15.4334V15.5C24.2057 15.7465 24.3811 15.9567 24.6047 16.1048C24.8282 16.2528 25.0902 16.3323 25.3584 16.3334H25.5C25.9421 16.3334 26.366 16.509 26.6786 16.8215C26.9911 17.1341 27.1667 17.558 27.1667 18C27.1667 18.4421 26.9911 18.866 26.6786 19.1786C26.366 19.4911 25.9421 19.6667 25.5 19.6667H25.425C25.1569 19.6678 24.8949 19.7472 24.6713 19.8953C24.4477 20.0434 24.2723 20.2536 24.1667 20.5Z" stroke="#F5F5F5" stroke-width="2" stroke-linecap="round" stroke-linejoin="round"/>
</g>
<defs>
<clipPath id="clip0_38_84">
<rect width="20" height="20" fill="white" transform="translate(8 8)"/>
</clipPath>
</defs>
</svg>
