<svg width="100" height="100" viewBox="0 0 100 100" fill="none" xmlns="http://www.w3.org/2000/svg">
<path d="M71.9716 61.8835C73.2429 61.8835 74.4467 62.0859 75.5831 62.4908C76.7195 62.8885 77.7244 63.517 78.598 64.3764C79.4787 65.2358 80.1676 66.358 80.6648 67.7429C81.169 69.1207 81.4247 70.7898 81.4318 72.75C81.4389 74.5398 81.2152 76.1484 80.7607 77.576C80.3132 78.9964 79.6705 80.2074 78.8324 81.2088C78.0014 82.2102 77 82.9773 75.8281 83.5099C74.6634 84.0355 73.3636 84.2983 71.929 84.2983C70.3168 84.2983 68.8999 83.9893 67.6783 83.3714C66.4567 82.7536 65.4837 81.9226 64.7592 80.8786C64.0348 79.8345 63.6122 78.6733 63.4915 77.3949H69.3295C69.4716 78.0554 69.7841 78.5348 70.267 78.8331C70.75 79.1243 71.304 79.2699 71.929 79.2699C73.179 79.2699 74.0916 78.7301 74.6669 77.6506C75.2493 76.5639 75.544 75.1151 75.5511 73.304H75.4233C75.1463 73.9716 74.7273 74.5433 74.1662 75.0192C73.6051 75.495 72.9517 75.8608 72.206 76.1165C71.4602 76.3722 70.6719 76.5 69.8409 76.5C68.527 76.5 67.3764 76.2053 66.3892 75.6158C65.402 75.0192 64.6314 74.206 64.0774 73.1761C63.5234 72.1392 63.2429 70.9602 63.2358 69.6392C63.2287 68.0909 63.5945 66.7344 64.3331 65.5696C65.0717 64.4048 66.098 63.4993 67.4119 62.853C68.7259 62.2067 70.2457 61.8835 71.9716 61.8835ZM72.0142 66.358C71.4247 66.358 70.8991 66.4929 70.4375 66.7628C69.983 67.0327 69.6243 67.3984 69.3615 67.8601C69.1058 68.3217 68.9815 68.8437 68.9886 69.4261C68.9957 70.0085 69.1271 70.5305 69.3828 70.9922C69.6456 71.4538 70.0007 71.8196 70.4482 72.0895C70.9027 72.3594 71.4247 72.4943 72.0142 72.4943C72.4474 72.4943 72.8487 72.4197 73.218 72.2706C73.5874 72.1143 73.907 71.8977 74.1768 71.6207C74.4538 71.3366 74.6669 71.0099 74.8161 70.6406C74.9723 70.2642 75.0469 69.8594 75.0398 69.4261C75.0327 68.8437 74.8977 68.3217 74.6349 67.8601C74.3722 67.3984 74.0135 67.0327 73.5589 66.7628C73.1044 66.4929 72.5895 66.358 72.0142 66.358Z" fill="#C5C5C5"/>
<rect x="3" y="3" width="94" height="94" rx="7" stroke="#C5C5C5" stroke-width="6"/>
<path d="M34.1449 19.1818V41H28.2216V24.6364H28.0938L23.321 27.4915V22.4631L28.6903 19.1818H34.1449Z" fill="#D9D9D9"/>
</svg>
