<svg width="191" height="190" viewBox="0 0 191 190" fill="none" xmlns="http://www.w3.org/2000/svg">
<path d="M28.0767 51L19.7528 21.9091H26.4716L31.2869 42.1222H31.5284L36.8409 21.9091H42.5938L47.892 42.1648H48.1477L52.9631 21.9091H59.6818L51.358 51H45.3636L39.8239 31.9801H39.5966L34.071 51H28.0767Z" fill="#C5C5C5"/>
<path d="M103.528 51V21.9091H115.006C117.203 21.9091 119.078 22.3021 120.631 23.0881C122.193 23.8646 123.382 24.9678 124.196 26.3977C125.02 27.8182 125.432 29.4896 125.432 31.4119C125.432 33.3437 125.015 35.0057 124.182 36.3977C123.348 37.7803 122.141 38.8409 120.56 39.5795C118.988 40.3182 117.084 40.6875 114.849 40.6875H107.165V35.7443H113.855C115.029 35.7443 116.005 35.5833 116.781 35.2614C117.558 34.9394 118.135 34.4564 118.514 33.8125C118.902 33.1686 119.097 32.3684 119.097 31.4119C119.097 30.446 118.902 29.6316 118.514 28.9688C118.135 28.3059 117.553 27.804 116.767 27.4631C115.991 27.1127 115.01 26.9375 113.827 26.9375H109.679V51H103.528ZM119.239 37.7614L126.469 51H119.679L112.605 37.7614H119.239Z" fill="#C5C5C5"/>
<path d="M147.841 51H137.528V21.9091H147.926C150.852 21.9091 153.371 22.4915 155.483 23.6562C157.595 24.8116 159.219 26.4735 160.355 28.642C161.501 30.8106 162.074 33.4053 162.074 36.4261C162.074 39.4564 161.501 42.0606 160.355 44.2386C159.219 46.4167 157.585 48.0881 155.455 49.2528C153.333 50.4176 150.795 51 147.841 51ZM143.679 45.7301H147.585C149.403 45.7301 150.933 45.4081 152.173 44.7642C153.423 44.1108 154.361 43.1023 154.986 41.7386C155.62 40.3655 155.938 38.5947 155.938 36.4261C155.938 34.2765 155.62 32.5199 154.986 31.1562C154.361 29.7926 153.428 28.7888 152.188 28.1449C150.947 27.5009 149.418 27.179 147.599 27.179H143.679V45.7301Z" fill="#6CA56E"/>
<path d="M93.2614 36.4545C93.2614 39.6269 92.66 42.3258 91.4574 44.5511C90.2642 46.7765 88.6354 48.4763 86.571 49.6506C84.5161 50.8153 82.2055 51.3977 79.6392 51.3977C77.054 51.3977 74.7339 50.8106 72.679 49.6364C70.6241 48.4621 69 46.7623 67.8068 44.5369C66.6136 42.3116 66.017 39.6174 66.017 36.4545C66.017 33.2822 66.6136 30.5833 67.8068 28.358C69 26.1326 70.6241 24.4375 72.679 23.2727C74.7339 22.0985 77.054 21.5114 79.6392 21.5114C82.2055 21.5114 84.5161 22.0985 86.571 23.2727C88.6354 24.4375 90.2642 26.1326 91.4574 28.358C92.66 30.5833 93.2614 33.2822 93.2614 36.4545ZM87.0256 36.4545C87.0256 34.3996 86.7178 32.6667 86.1023 31.2557C85.4962 29.8447 84.6392 28.7746 83.5312 28.0455C82.4233 27.3163 81.1259 26.9517 79.6392 26.9517C78.1525 26.9517 76.8551 27.3163 75.7472 28.0455C74.6392 28.7746 73.7775 29.8447 73.1619 31.2557C72.5559 32.6667 72.2528 34.3996 72.2528 36.4545C72.2528 38.5095 72.5559 40.2424 73.1619 41.6534C73.7775 43.0644 74.6392 44.1345 75.7472 44.8636C76.8551 45.5928 78.1525 45.9574 79.6392 45.9574C81.1259 45.9574 82.4233 45.5928 83.5312 44.8636C84.6392 44.1345 85.4962 43.0644 86.1023 41.6534C86.7178 40.2424 87.0256 38.5095 87.0256 36.4545Z" fill="#DCD073"/>
<line x1="5" y1="66.5" x2="189" y2="66.5" stroke="#C5C5C5" stroke-width="13"/>
<rect x="6.5" y="6.5" width="178" height="177" rx="13.5" stroke="#C5C5C5" stroke-width="13"/>
</svg>
